<svg xmlns="http://www.w3.org/2000/svg" viewBox="0 0 489.74 100.08"><defs><style>.cls-1{font-size:72px;fill:#e30613;font-family:LeckerliOne-Regular, Leckerli One;letter-spacing:0.1em;}.cls-2{letter-spacing:0.14em;}.cls-3{letter-spacing:0.08em;}.cls-4{letter-spacing:0.13em;}.cls-5{fill:none;stroke:#1d1d1b;stroke-linecap:round;stroke-miterlimit:10;stroke-width:14px;}</style></defs><g id="Layer_1" data-name="Layer 1"><text class="cls-1" transform="translate(0 77.55)">POR<tspan class="cls-2" x="173.66" y="0">T</tspan><tspan x="223.49" y="0">F</tspan><tspan class="cls-3" x="271.73" y="0">O</tspan><tspan class="cls-4" x="338.61" y="0">L</tspan><tspan x="390.6" y="0">IO</tspan></text></g><g id="Layer_2" data-name="Layer 2"><path class="cls-5" d="M83.13,250.09s-8.74,25-6.26,31.69-2.61-40.56-2.61-40.56,33.26-14.48,33.78,8.35-17.47,16-17.47,16l29.86-45.13s43.83,3.13,44.22,6.26-1.37,8.82-1.37,8.82-31.89-1.78-34.11,21.7,7.83,22.83,10.18,23.87,20.74,2.48,23.08-3.26,11.87-14.61,6.79-30.13c0,0-14.09-2.48-9.39,7.3S177,259.22,177,259.22s25.44-10.31,26-9.26-7.7,27.37-6.13,32.46-3.26-39.64-3-40.55,30.13-13.17,31.7,6.52-15.92,12.78-14.48,12.26,10.17,18.14,10.43,22.18,15.65-7.83,15.52-9,6.13-33,7.31-30.66,31.69-9.91,38-5.87-17.6-11.21-17.6-11.21-6.92,53.87-6.13,58.17,34.17-41.48,36-41.09,18.26-11.74,40.43-5.08-18.26-11.87-18.26-11.87-15,50.61-13.83,57.26S290.13,263,290.13,263s25.3-8.74,35.09-3.65,29.21-41.61,29.21-41.61,26.74,1.69,27.92,2.74,2.22,15.13,3,15.26-37.18-.78-33.92,16.43c0,0-9,25.18,10.83,29.22s26.35-11.87,26.35-11.87,8-20.22-2.48-23.61-6.39,14.22-3.39,15.52,14.09-1.95,14.09-1.95l12.39-9.65s26.48,7.3,34.82,2.34-.78-16.82-.78-16.82-13.56,1.43-14.87,14.48-4.3,27.78-4.3,27.78-5.35,16.69-15.26,4.43,29.47,2.35,29.47,2.35,14-6.91,13.31-10.69,12.65-54,12.65-54,13.7,5.6,14.48,5.47-14,52.72-11.61,57.66,31-65.09,31-65.09l33.66,6,2.74,11.61s-36-1.31-33.27,17.87c0,0-6.39,26.08,5.87,29.08s26.48-5.47,27.4-7.3,10-18.78,5.21-26-8.74.79-8.74.79l1.18,10.3,14.21-.65" transform="translate(-66.44 -209.85)"/></g></svg>